<svg xmlns="http://www.w3.org/2000/svg" width="123" height="122" fill="none"><path fill="#5C5C5C" d="M120.824 73.567c-1.499-2.55-3.959-3.962-6.342-5.45-2.822-1.764-5.941-3-8.744-4.807-2.346-1.511-4.326-3.338-5.511-5.93-.36-.781-.328-1.309.342-1.96 2.74-2.652 5.417-5.372 8.108-8.076 2.157-2.169 2.162-4.389 0-6.558-4.042-4.049-8.101-8.08-12.128-12.144-1.003-1.013-2.115-1.688-3.568-1.572-.65.054-.794-.425-1.049-.792-5.514-7.863-11.02-15.732-16.517-23.606-.833-1.2-1.758-2.186-3.157-2.672h-1.91c-.575.44-1.287.65-1.819 1.185A79255.9 79255.9 0 0 1 45.455 24.3c-1.334 1.34-1.547 3.123-.668 4.829.709 1.374 1.489 2.71 2.225 4.07.15.275.42.52.369 1.089-1.73-.972-3.299-1.859-4.897-2.706-1.749-.926-3.48-.763-4.843.546a205.842 205.842 0 0 0-6.058 6.072 2.052 2.052 0 0 1-1.484.746c-6.699.454-13.378 1.081-19.9 2.789-2.995.782-5.965 1.663-8.411 3.711C.709 46.351 0 47.454 0 48.918v7.87c0 1.215.391 2.31 1.29 3.097.66.576.755 1.2.755 1.987-.014 16.135.051 32.27-.065 48.406-.025 3.106 1.258 5.006 3.81 6.385 2.896 1.567 6.032 2.4 9.216 3.061 7.612 1.578 15.334 2.139 23.087 2.254 9.509.141 18.98-.357 28.326-2.271 3.58-.729 7.11-1.654 10.213-3.712 1.82-1.214 2.725-2.81 2.713-5.086-.06-11.047-.026-22.103-.029-33.145 0-.6.015-1.127.517-1.615a329.27 329.27 0 0 0 6.316-6.315c.437-.447.794-.486 1.355-.243a12.05 12.05 0 0 1 4.962 3.782c1.373 1.7 2.43 3.619 3.425 5.562 1.457 2.861 2.932 5.71 4.875 8.292 4.032 5.344 10.792 5.902 15.645 1.27 2.443-2.331 4.814-4.692 5.695-8.112v-3.583c-.51-1.04-.672-2.21-1.282-3.235ZM39.941 35.52c.471-.485.782-.262 1.215-.021 3.528 1.972 7.063 3.935 10.604 5.89 1.474.806 2.963.175 3.24-1.322.127-.68-.187-1.233-.486-1.79-1.906-3.432-3.793-6.874-5.734-10.284-.362-.634-.328-.988.199-1.5 2.39-2.33 4.734-4.708 7.095-7.069 1.117-1.117 1.112-1.112 2.089.06 3.76 4.52 7.521 9.04 11.285 13.559.204.243.403.486.619.729.899.971 2.043 1.124 2.949.371.906-.753 1.008-1.943.165-2.968-2.111-2.584-4.263-5.135-6.4-7.7-2.06-2.47-4.108-4.955-6.197-7.403-.42-.486-.427-.758.049-1.229A903.38 903.38 0 0 0 70.749 4.722c.632-.641.863-.406 1.261.165A9635.368 9635.368 0 0 0 88.675 28.69c.425.603.371.928-.148 1.458-9.32 9.283-18.626 18.583-27.916 27.9-.374.375-.622.686-1.246.243-8.207-5.785-16.439-11.534-24.806-17.39 1.843-1.84 3.643-3.588 5.387-5.38h-.005Zm7.352 19.264c-10.794.348-21.155-.014-31.418-1.921A141.359 141.359 0 0 1 40.65 50.82a2.973 2.973 0 0 1 1.86.59c1.487 1.086 3.01 2.128 4.788 3.374h-.005Zm-42.69-6.512a8.805 8.805 0 0 1 2.509-1.321c4.442-1.676 9.091-2.429 13.767-3.06 3.068-.413 6.152-.632 9.23-.872a1.525 1.525 0 0 1 1.428.539c1.149 1.258 2.754 1.962 4.246 3.252-2.388.131-4.52.243-6.653.367-7.211.456-14.367 1.26-21.319 3.374-.808.242-3.128-.821-3.553-1.545-.26-.447.143-.573.345-.734Zm-.486 5.601c8.65 3.442 17.641 4.28 26.686 4.824 6.985.39 13.985.368 20.967-.065a2.509 2.509 0 0 1 1.763.485c1.314.972 2.672 1.893 4.282 3.02-4.216.444-8.078.728-11.952.813-9.15.226-18.275-.063-27.34-1.428-3.923-.59-7.853-1.231-11.513-2.835-3.66-1.603-2.92-1.236-2.893-4.809v-.005Zm71.126 57.597c0 .826-.624 1.164-1.215 1.489-2.555 1.431-5.37 2.125-8.202 2.716-9.699 2.023-19.524 2.429-29.39 2.2-7.714-.177-15.377-.826-22.9-2.672a27.582 27.582 0 0 1-5.934-2.064c-1.061-.537-1.527-1.251-1.515-2.521.063-7.71.031-15.42.031-23.128 0-7.788.015-15.577-.019-23.364 0-1.028.058-1.37 1.248-.972 5.254 1.78 10.717 2.558 16.206 3.119a172.24 172.24 0 0 0 27.736.486c2.338-.14 4.673-.335 7.005-.588a1.683 1.683 0 0 1 1.564.537c3.777 3.81 7.588 7.588 11.363 11.396.971.972 2.004 1.7 3.432 1.603.527-.036.587.221.587.632-.003 10.383-.003 20.76 0 31.131h.003Zm-.08-36.351c-.486.486-.729.486-1.193 0-3.886-3.925-7.79-7.83-11.71-11.712-.517-.513-.539-.768 0-1.297a13763.54 13763.54 0 0 0 30.318-30.335c.576-.578.855-.508 1.382.024 3.854 3.898 7.728 7.776 11.622 11.635.226.179.471.334.729.461-.342.367-.486.544-.663.71C95.482 54.775 85.32 64.947 75.16 75.119h.003Zm41.014 7.845a85.726 85.726 0 0 1-2.871 2.86c-1.202 1.143-2.652 1.7-4.515 1.724a5.64 5.64 0 0 1-4.411-2.315 38.98 38.98 0 0 1-3.927-6.366c-1.215-2.45-2.475-4.88-4.079-7.11-1.55-2.152-3.378-4.012-5.763-5.234-.61-.313-.622-.512-.151-.971a538.122 538.122 0 0 0 5.65-5.648c.352-.357.553-.47.845.09 1.943 3.719 5.174 6.031 8.72 8.016 3.247 1.816 6.687 3.288 9.677 5.564 3.252 2.473 3.653 6.417.823 9.39h.002Z"/><path fill="#5C5C5C" d="M44.522 76.71c-.697-1.715-1.994-2.706-3.835-2.706s-3.158.972-3.845 2.689c-2.313 5.686-4.707 11.34-6.9 17.07-2.981 7.787 2.647 16.068 10.788 16.072a21.63 21.63 0 0 0 2.242-.259c7.08-1.531 11.066-8.987 8.4-15.905-2.194-5.681-4.555-11.304-6.85-16.961Zm-.107 28.01a7.428 7.428 0 0 1-8.258-.527c-2.43-1.924-3.644-5.458-2.543-8.462 1.598-4.372 3.427-8.679 5.164-13.01a584.147 584.147 0 0 1 1.901-4.668c1.764 4.387 3.476 8.596 5.15 12.82.77 1.943 1.84 3.782 2.186 5.883.488 3.213-.962 6.412-3.6 7.971v-.007ZM12.033 79.365c-1.04.085-1.664.685-1.807 1.727-.04.4-.052.803-.037 1.204v24.567c-.014.397-.003.794.034 1.19.144 1.042.763 1.647 1.805 1.734 1.042.087 1.78-.376 2.077-1.389a5.08 5.08 0 0 0 .15-1.412V82.182a5.175 5.175 0 0 0-.148-1.41c-.291-1.028-1.04-1.492-2.074-1.407ZM12.227 69.163c-1.418-.012-2.04.897-2.023 2.983 0 .396-.027.794 0 1.19.092 1.103.711 1.742 1.802 1.87 1.09.13 1.943-.51 2.164-1.598.075-.47.103-.945.083-1.42.012-2.055-.634-3.008-2.026-3.025ZM92.03 38.136c-.187.149-.362.311-.523.486L76.329 53.798a3.026 3.026 0 0 0-.824 1.146 2.033 2.033 0 0 0 1.885 2.672c.777-.012 1.324-.434 1.849-.96 5.02-5.037 10.049-10.07 15.088-15.097a5.37 5.37 0 0 0 .563-.612 2.031 2.031 0 0 0-.157-2.621 1.987 1.987 0 0 0-2.704-.19ZM71.64 59.329c-1.274.017-3.426 2.186-3.429 3.468a1.943 1.943 0 0 0 1.04 1.744 1.759 1.759 0 0 0 2.11-.114 13.816 13.816 0 0 0 2.002-2.004c.503-.631.474-1.411.053-2.12a1.912 1.912 0 0 0-1.775-.974Z"/></svg>